HIERARCHY
ROOT hips
{
	OFFSET 0.000000 104.274902 0.000000
	CHANNELS 6 Xposition Yposition Zposition Xrotation Yrotation Zrotation
	JOINT spine
	{
		OFFSET 0.000000 10.181549 0.131524
		CHANNELS 6 Xposition Yposition Zposition Xrotation Yrotation Zrotation
		JOINT chest
		{
			OFFSET 0.000000 9.893990 -1.470706
			CHANNELS 3 Xrotation Yrotation Zrotation
			JOINT upperChest
			{
				OFFSET 0.000000 9.220787 -1.370637
				CHANNELS 3 Xrotation Yrotation Zrotation
				JOINT neck
				{
					OFFSET 0.000000 16.740372 -2.049022
					CHANNELS 6 Xposition Yposition Zposition Xrotation Yrotation Zrotation
					JOINT head
					{
						OFFSET 0.000000 9.617859 1.684976
						CHANNELS 6 Xposition Yposition Zposition Xrotation Yrotation Zrotation
						JOINT headEnd
						{
							OFFSET 0.000000 22.037384 7.501072
							CHANNELS 6 Xposition Yposition Zposition Xrotation Yrotation Zrotation
							End Site
							{
								OFFSET 0.000000 23.106567 -2.828246
							}
						}
					}
				}
				JOINT rightShoulder
				{
					OFFSET -4.570000 11.014877 -2.160840
					CHANNELS 6 Xposition Yposition Zposition Xrotation Yrotation Zrotation
					JOINT rightUpperArm
					{
						OFFSET -10.592867 -0.524796 -2.232105
						CHANNELS 3 Xrotation Yrotation Zrotation
						JOINT rightLowerArm
						{
							OFFSET -27.841497 0.000000 -0.000002
							CHANNELS 3 Xrotation Yrotation Zrotation
							JOINT rightHand
							{
								OFFSET -28.328812 0.000000 -0.000001
								CHANNELS 3 Xrotation Yrotation Zrotation
								JOINT rightThumbProximal
								{
									OFFSET -2.464798 -1.573990 2.681911
									CHANNELS 6 Xposition Yposition Zposition Xrotation Yrotation Zrotation
									JOINT rightThumbIntermediate
									{
										OFFSET -3.244781 -1.873383 1.873376
										CHANNELS 3 Xrotation Yrotation Zrotation
										JOINT rightThumbDistal
										{
											OFFSET -2.646263 -1.527817 1.527818
											CHANNELS 6 Xposition Yposition Zposition Xrotation Yrotation Zrotation
											JOINT rightHandThumb4
											{
												OFFSET -1.994591 -1.151581 1.151575
												CHANNELS 6 Xposition Yposition Zposition Xrotation Yrotation Zrotation
												End Site
												{
													OFFSET -1.860176 -1.142715 1.365483
												}
											}
										}
									}
								}
								JOINT rightIndexProximal
								{
									OFFSET -9.108299 -0.517883 2.259803
									CHANNELS 6 Xposition Yposition Zposition Xrotation Yrotation Zrotation
									JOINT rightIndexIntermediate
									{
										OFFSET -3.699997 0.000000 0.000000
										CHANNELS 3 Xrotation Yrotation Zrotation
										JOINT rightIndexDistal
										{
											OFFSET -2.850006 0.000000 0.000000
											CHANNELS 3 Xrotation Yrotation Zrotation
											JOINT rightHandIndex4
											{
												OFFSET -2.772194 0.000000 0.000000
												CHANNELS 3 Xrotation Yrotation Zrotation
												End Site
												{
													OFFSET -2.772202 0.000000 -0.000484
												}
											}
										}
									}
								}
								JOINT rightMiddleProximal
								{
									OFFSET -9.532501 0.000000 -0.000000
									CHANNELS 6 Xposition Yposition Zposition Xrotation Yrotation Zrotation
									JOINT rightMiddleIntermediate
									{
										OFFSET -3.699997 0.000000 0.000000
										CHANNELS 3 Xrotation Yrotation Zrotation
										JOINT rightMiddleDistal
										{
											OFFSET -2.949997 0.000000 0.000000
											CHANNELS 3 Xrotation Yrotation Zrotation
											JOINT rightHandMiddle4
											{
												OFFSET -2.946594 0.000000 0.000000
												CHANNELS 3 Xrotation Yrotation Zrotation
												End Site
												{
													OFFSET -2.946602 0.000000 -0.000982
												}
											}
										}
									}
								}
								JOINT rightRingProximal
								{
									OFFSET -9.103600 -0.043106 -1.865100
									CHANNELS 6 Xposition Yposition Zposition Xrotation Yrotation Zrotation
									JOINT rightRingIntermediate
									{
										OFFSET -3.379303 0.000000 0.000000
										CHANNELS 3 Xrotation Yrotation Zrotation
										JOINT rightRingDistal
										{
											OFFSET -2.889694 0.000000 0.000000
											CHANNELS 3 Xrotation Yrotation Zrotation
											JOINT rightHandRing4
											{
												OFFSET -2.638802 0.000000 0.000000
												CHANNELS 3 Xrotation Yrotation Zrotation
												End Site
												{
													OFFSET -2.638802 0.000000 0.004218
												}
											}
										}
									}
								}
								JOINT rightLittleProximal
								{
									OFFSET -8.076698 -0.486725 -3.806299
									CHANNELS 6 Xposition Yposition Zposition Xrotation Yrotation Zrotation
									JOINT rightLittleIntermediate
									{
										OFFSET -3.600006 0.000000 0.000000
										CHANNELS 3 Xrotation Yrotation Zrotation
										JOINT rightLittleDistal
										{
											OFFSET -2.099998 0.000000 0.000000
											CHANNELS 3 Xrotation Yrotation Zrotation
											JOINT rightHandPinky4
											{
												OFFSET -2.115791 0.000000 0.000000
												CHANNELS 3 Xrotation Yrotation Zrotation
												End Site
												{
													OFFSET -2.115799 0.000000 0.000174
												}
											}
										}
									}
								}
							}
						}
					}
				}
				JOINT leftShoulder
				{
					OFFSET 4.570400 11.014679 -2.160816
					CHANNELS 6 Xposition Yposition Zposition Xrotation Yrotation Zrotation
					JOINT leftUpperArm
					{
						OFFSET 10.592373 -0.524597 -2.232116
						CHANNELS 3 Xrotation Yrotation Zrotation
						JOINT leftLowerArm
						{
							OFFSET 27.841488 0.000000 0.000001
							CHANNELS 3 Xrotation Yrotation Zrotation
							JOINT leftHand
							{
								OFFSET 28.328808 0.000000 -0.000000
								CHANNELS 3 Xrotation Yrotation Zrotation
								JOINT leftThumbProximal
								{
									OFFSET 2.466103 -1.576202 2.681698
									CHANNELS 6 Xposition Yposition Zposition Xrotation Yrotation Zrotation
									JOINT leftThumbIntermediate
									{
										OFFSET 3.243317 -1.872528 1.872530
										CHANNELS 3 Xrotation Yrotation Zrotation
										JOINT leftThumbDistal
										{
											OFFSET 2.647881 -1.528763 1.528754
											CHANNELS 6 Xposition Yposition Zposition Xrotation Yrotation Zrotation
											JOINT leftHandThumb4
											{
												OFFSET 1.998924 -1.154083 1.154080
												CHANNELS 6 Xposition Yposition Zposition Xrotation Yrotation Zrotation
												End Site
												{
													OFFSET 1.884041 -1.149155 1.337651
												}
											}
										}
									}
								}
								JOINT leftIndexProximal
								{
									OFFSET 9.109299 -0.518005 2.259900
									CHANNELS 6 Xposition Yposition Zposition Xrotation Yrotation Zrotation
									JOINT leftIndexIntermediate
									{
										OFFSET 3.699997 0.000000 0.000000
										CHANNELS 3 Xrotation Yrotation Zrotation
										JOINT leftIndexDistal
										{
											OFFSET 2.850006 0.000000 0.000000
											CHANNELS 3 Xrotation Yrotation Zrotation
											JOINT leftHandIndex4
											{
												OFFSET 2.774895 0.000000 0.000000
												CHANNELS 3 Xrotation Yrotation Zrotation
												End Site
												{
													OFFSET 2.774902 0.000000 -0.000072
												}
											}
										}
									}
								}
								JOINT leftMiddleProximal
								{
									OFFSET 9.533401 0.000000 0.000000
									CHANNELS 6 Xposition Yposition Zposition Xrotation Yrotation Zrotation
									JOINT leftMiddleIntermediate
									{
										OFFSET 3.699997 0.000000 0.000000
										CHANNELS 3 Xrotation Yrotation Zrotation
										JOINT leftMiddleDistal
										{
											OFFSET 2.949997 0.000000 0.000000
											CHANNELS 3 Xrotation Yrotation Zrotation
											JOINT leftHandMiddle4
											{
												OFFSET 2.952896 0.000000 0.000000
												CHANNELS 3 Xrotation Yrotation Zrotation
												End Site
												{
													OFFSET 2.952904 0.000000 0.000165
												}
											}
										}
									}
								}
								JOINT leftRingProximal
								{
									OFFSET 9.104500 -0.042999 -1.865101
									CHANNELS 6 Xposition Yposition Zposition Xrotation Yrotation Zrotation
									JOINT leftRingIntermediate
									{
										OFFSET 3.149994 0.000000 0.000000
										CHANNELS 3 Xrotation Yrotation Zrotation
										JOINT leftRingDistal
										{
											OFFSET 2.950005 0.000000 0.000000
											CHANNELS 3 Xrotation Yrotation Zrotation
											JOINT leftHandRing4
											{
												OFFSET 2.644302 0.000000 0.000000
												CHANNELS 3 Xrotation Yrotation Zrotation
												End Site
												{
													OFFSET 2.644302 0.000000 0.000083
												}
											}
										}
									}
								}
								JOINT leftLittleProximal
								{
									OFFSET 8.077805 -0.486893 -3.806302
									CHANNELS 6 Xposition Yposition Zposition Xrotation Yrotation Zrotation
									JOINT leftLittleIntermediate
									{
										OFFSET 3.600006 0.000000 0.000000
										CHANNELS 3 Xrotation Yrotation Zrotation
										JOINT leftLittleDistal
										{
											OFFSET 2.099998 0.000000 0.000000
											CHANNELS 3 Xrotation Yrotation Zrotation
											JOINT leftHandPinky4
											{
												OFFSET 2.125496 0.000000 0.000000
												CHANNELS 3 Xrotation Yrotation Zrotation
												End Site
												{
													OFFSET 2.125504 0.000000 -0.001254
												}
											}
										}
									}
								}
							}
						}
					}
				}
			}
		}
	}
	JOINT rightUpperLeg
	{
		OFFSET -8.207800 -6.751701 -1.599544
		CHANNELS 6 Xposition Yposition Zposition Xrotation Yrotation Zrotation
		JOINT rightLowerLeg
		{
			OFFSET 0.000004 -44.370152 0.345934
			CHANNELS 3 Xrotation Yrotation Zrotation
			JOINT rightFoot
			{
				OFFSET 0.000004 -44.423664 -3.043535
				CHANNELS 3 Xrotation Yrotation Zrotation
				JOINT rightToes
				{
					OFFSET 0.000001 -8.728691 10.710592
					CHANNELS 3 Xrotation Yrotation Zrotation
					JOINT rightToesEnd
					{
						OFFSET 0.000000 -0.000665 9.278101
						CHANNELS 3 Xrotation Yrotation Zrotation
						End Site
						{
							OFFSET 0.000000 -0.000665 9.278103
						}
					}
				}
			}
		}
	}
	JOINT leftUpperLeg
	{
		OFFSET 8.207800 -6.751701 -1.599544
		CHANNELS 6 Xposition Yposition Zposition Xrotation Yrotation Zrotation
		JOINT leftLowerLeg
		{
			OFFSET 0.000004 -44.370037 0.346940
			CHANNELS 3 Xrotation Yrotation Zrotation
			JOINT leftFoot
			{
				OFFSET 0.000004 -44.423611 -3.044388
				CHANNELS 3 Xrotation Yrotation Zrotation
				JOINT leftToes
				{
					OFFSET 0.000001 -8.728690 10.710592
					CHANNELS 3 Xrotation Yrotation Zrotation
					JOINT leftToesEnd
					{
						OFFSET 0.000000 -0.000680 9.278101
						CHANNELS 3 Xrotation Yrotation Zrotation
						End Site
						{
							OFFSET 0.000000 -0.000680 9.278101
						}
					}
				}
			}
		}
	}
}
MOTION
Frames: 4
Frame Time: 0.033333
0.431186 103.379860 1.363618 -3.761797 6.514389 -2.992276 -0.000000 10.181549 0.131525 3.296854 1.543021 2.734230 1.151890 0.339456 1.552799 1.126012 0.361545 1.555888 -0.000000 16.740376 -2.049018 5.626309 -0.078961 0.454684 -0.000000 9.617867 1.684975 -7.563343 1.375726 -0.080567 -0.000000 22.037384 7.501069 -0.000000 -0.000000 0.000000 -4.570001 11.014860 -2.160837 1.203170 15.343680 14.706041 13.158818 27.555102 58.785191 0.000004 6.693781 0.000014 -20.179060 -0.514153 6.782797 -2.464808 -1.573998 2.681909 -1.665238 -0.174483 -4.219040 12.710716 -29.825387 -16.131541 -2.646250 -1.527802 1.527818 -15.561922 -3.563507 -12.703156 -1.994594 -1.151575 1.151579 -0.000000 -0.000004 -0.000002 -9.108294 -0.517883 2.259803 0.030296 1.261343 6.823303 0.213723 -1.396032 17.407019 0.046032 -0.653842 8.053241 -0.000003 -0.000001 0.000003 -9.532514 -0.000004 -0.000002 -0.136219 -2.205102 14.998899 0.214452 -1.398348 17.436884 0.239766 -1.476524 18.446282 0.000003 0.000000 0.000002 -9.103616 -0.043092 -1.865102 0.028855 -3.071037 20.451359 0.308434 -1.668270 20.948527 0.225836 -1.434053 17.897097 0.000002 -0.000001 0.000001 -8.076706 -0.486727 -3.806300 0.736302 -4.891519 26.472985 0.214455 -1.398348 17.436921 0.193009 -1.328181 16.535821 0.000000 -0.000002 0.000001 4.570399 11.014676 -2.160813 1.044419 -17.441008 -12.319348 3.916203 -19.989281 -69.765376 0.000003 -1.459371 0.000003 -33.230506 -1.364892 -6.186625 2.466094 -1.576209 2.681697 -0.662910 2.160406 4.832487 11.853546 25.421653 17.058315 2.647876 -1.528742 1.528748 -13.814969 3.535318 9.041630 1.998913 -1.154081 1.154074 -0.000000 0.000001 0.000001 9.109289 -0.518021 2.259900 0.019848 -0.969568 -7.593538 0.267942 1.753203 -17.378576 0.057714 0.821257 -8.040846 0.000000 0.000000 -0.000000 9.533396 0.000007 0.000001 -0.076328 2.665807 -15.696833 0.268662 1.755503 -17.402164 0.300387 1.853685 -18.409986 0.000000 0.000000 0.000001 9.104484 -0.042997 -1.865100 0.136875 3.641809 -21.133512 0.386597 2.094826 -20.911898 0.283021 1.800669 -17.864988 -0.000000 0.000000 -0.000001 8.077779 -0.486893 -3.806300 0.927685 5.555970 -27.128038 0.268773 1.755873 -17.405863 0.241892 1.667728 -16.505891 0.000000 0.000000 0.000000 -8.207800 -6.751705 -1.599544 0.606394 -10.391090 3.498806 7.409791 -9.742765 -3.277083 -3.690913 -1.650753 3.208549 -7.293307 -0.000018 -0.000002 0.000000 0.000000 0.000000 8.207800 -6.751696 -1.599546 -10.788525 14.737419 10.339744 12.165831 2.032990 4.168951 1.273447 0.514415 -7.111801 -4.928528 0.000003 -0.000002 0.000000 -0.000001 0.000000 
0.990831 103.103149 0.988079 -3.553116 4.292447 -3.139418 -0.000000 10.181533 0.131524 3.416696 1.319762 2.518658 1.248270 0.185020 1.550223 1.218454 0.205207 1.594305 0.000001 16.740385 -2.049022 5.508174 -0.720056 0.788084 -0.000001 9.617856 1.684979 -7.921075 -0.730570 0.449663 0.000000 22.037384 7.501074 0.000000 0.000000 -0.000000 -4.570004 11.014847 -2.160841 1.174807 15.442583 14.847709 11.319258 25.711351 58.776394 -0.000004 7.611372 -0.000000 -18.835037 1.411494 4.947340 -2.464798 -1.573993 2.681913 -1.665241 -0.174483 -4.219040 12.521839 -29.836568 -16.168711 -2.646272 -1.527798 1.527815 -15.549674 -3.634100 -12.718704 -1.994590 -1.151586 1.151574 0.000000 -0.000001 -0.000000 -9.108312 -0.517884 2.259804 0.020486 1.269209 6.948172 0.214195 -1.397497 17.426014 0.046235 -0.655370 8.072213 0.000001 0.000000 0.000000 -9.532505 0.000001 0.000001 -0.153283 -2.153961 15.136302 0.214773 -1.399352 17.449829 0.240121 -1.477548 18.459587 -0.000002 0.000002 0.000003 -9.103601 -0.043096 -1.865101 0.031877 -3.083291 20.543998 0.309366 -1.670692 20.980391 0.226620 -1.436516 17.928941 0.000001 -0.000004 0.000000 -8.076710 -0.486726 -3.806294 0.718227 -4.854121 26.536996 0.214909 -1.399782 17.455298 0.193439 -1.329615 16.554078 0.000001 0.000003 0.000003 4.570399 11.014663 -2.160816 1.104475 -17.506261 -12.071437 4.627202 -20.040323 -69.281081 0.000005 -1.749960 0.000002 -33.575434 -1.272704 -6.084130 2.466090 -1.576209 2.681699 -0.662910 2.160406 4.832489 11.831231 25.315347 17.076337 2.647902 -1.528730 1.528752 -13.811712 3.548775 9.045016 1.998924 -1.154083 1.154081 0.000001 -0.000002 0.000003 9.109279 -0.518013 2.259900 -0.004196 -0.997047 -7.620200 0.267949 1.753205 -17.378600 0.057699 0.821253 -8.040850 -0.000000 -0.000000 0.000004 9.533399 0.000006 0.000000 -0.081247 2.658821 -15.819131 0.268651 1.755505 -17.402144 0.300403 1.853683 -18.409988 0.000000 0.000000 0.000005 9.104482 -0.042994 -1.865102 0.134599 3.639284 -21.210656 0.385458 2.091829 -20.880564 0.282037 1.797616 -17.833684 0.000001 -0.000000 -0.000001 8.077806 -0.486890 -3.806303 0.878544 5.492058 -27.202890 0.274267 1.773283 -17.584288 0.247042 1.685057 -16.682471 -0.000000 0.000000 -0.000004 -8.207800 -6.751716 -1.599544 -1.711667 -10.441110 2.687520 10.643643 -7.570655 -3.108703 -4.762177 -1.688930 3.458467 -7.293313 0.000001 0.000001 -0.000001 0.000001 0.000000 8.207799 -6.751720 -1.599546 -11.970600 14.338778 10.435379 14.610895 4.035265 4.120150 -0.004834 1.067723 -7.044124 -4.928519 0.000007 -0.000001 0.000000 0.000000 -0.000000 
2.402714 102.604309 0.203100 -3.298647 2.193777 -3.251713 -0.000000 10.181549 0.131525 3.549345 1.143000 2.209058 1.348177 0.068653 1.433333 1.314378 0.095191 1.599575 0.000000 16.740368 -2.049021 5.686850 -1.976230 1.355243 0.000002 9.617872 1.684976 -7.737406 -4.045423 1.283507 0.000002 22.037369 7.501077 0.000000 0.000000 -0.000000 -4.569999 11.014875 -2.160839 1.143546 15.558256 15.002353 8.687100 21.993187 59.103690 -0.000003 8.636643 0.000011 -14.763273 3.843993 3.452494 -2.464785 -1.573988 2.681909 -1.665240 -0.174478 -4.219036 12.600832 -29.815347 -16.146431 -2.646267 -1.527819 1.527814 -15.550894 -3.592111 -12.720759 -1.994596 -1.151579 1.151577 -0.000003 -0.000002 0.000008 -9.108294 -0.517880 2.259803 0.028957 1.244974 7.002544 0.213792 -1.396278 17.410270 0.046070 -0.654100 8.056451 -0.000000 0.000000 0.000001 -9.532494 0.000009 -0.000002 -0.161989 -2.126799 15.190622 0.215049 -1.400245 17.461365 0.240419 -1.478461 18.471297 0.000000 -0.000001 0.000001 -9.103600 -0.043093 -1.865101 0.042759 -3.115755 20.622967 0.309871 -1.671989 20.997521 0.227035 -1.437812 17.945907 0.000002 -0.000002 0.000002 -8.076701 -0.486725 -3.806299 0.736973 -4.890561 26.580550 0.214473 -1.398382 17.437304 0.193005 -1.328212 16.536171 -0.000000 0.000005 0.000005 4.570402 11.014695 -2.160815 1.166541 -17.531057 -11.830034 5.429767 -19.691330 -68.640150 -0.000008 -2.201959 -0.000004 -33.964864 -1.012180 -5.777854 2.466091 -1.576192 2.681699 -0.662910 2.160404 4.832491 11.880873 25.487174 17.001587 2.647872 -1.528730 1.528745 -13.815440 3.533461 9.041155 1.998917 -1.154091 1.154078 -0.000001 -0.000003 -0.000000 9.109291 -0.518018 2.259901 -0.013873 -0.986903 -7.704701 0.267962 1.753260 -17.379179 0.057722 0.821319 -8.041450 0.000000 0.000000 0.000005 9.533401 0.000004 0.000000 -0.069469 2.700818 -15.820689 0.268640 1.755435 -17.401384 0.300362 1.853599 -18.409088 -0.000001 0.000000 0.000008 9.104487 -0.042992 -1.865100 0.121000 3.606546 -21.263540 0.386797 2.095344 -20.917383 0.283183 1.801202 -17.870524 0.000000 0.000001 0.000004 8.077802 -0.486886 -3.806300 0.797783 5.387951 -27.333404 0.268990 1.756542 -17.412724 0.241942 1.667929 -16.507944 0.000000 0.000001 0.000000 -8.207800 -6.751707 -1.599543 -6.049045 -3.745661 -0.015830 17.250708 -9.962105 0.382762 -5.317712 -5.139736 3.760399 -7.564937 -0.000001 0.000001 -0.000000 0.000001 -0.000000 8.207800 -6.751694 -1.599540 -13.933267 13.087911 9.831839 18.515757 6.021714 4.180210 -1.905592 2.485381 -6.632628 -4.928519 0.000000 -0.000002 -0.000000 0.000000 0.000000 
4.288187 102.227158 -0.464882 -3.022196 0.161537 -3.308669 -0.000000 10.181548 0.131524 3.679301 0.976636 2.113256 1.455359 -0.072594 1.226836 1.418155 -0.030078 1.582648 0.000001 16.740362 -2.049020 6.160513 -3.580040 2.013637 0.000001 9.617846 1.684977 -7.044689 -8.035309 2.296687 0.000000 22.037354 7.501075 -0.000000 0.000002 -0.000000 -4.570003 11.014864 -2.160839 1.124592 15.615546 15.096002 5.785081 16.907006 59.504915 -0.000012 9.923218 0.000017 -8.727925 6.501394 1.989560 -2.464790 -1.574000 2.681907 -1.665241 -0.174483 -4.219040 13.118254 -30.028578 -16.056583 -2.646260 -1.527803 1.527813 -15.552423 -3.341752 -12.708860 -1.994594 -1.151575 1.151581 -0.000001 -0.000002 -0.000002 -9.108307 -0.517888 2.259800 0.043825 1.178036 7.234938 0.213637 -1.395765 17.403587 0.045999 -0.653571 8.049792 -0.000003 0.000001 0.000002 -9.532501 0.000011 -0.000003 -0.135458 -2.251236 15.489583 0.215422 -1.401451 17.476861 0.240806 -1.479608 18.486240 0.000002 0.000001 0.000001 -9.103602 -0.043092 -1.865105 0.062250 -3.174808 20.803890 0.310225 -1.672962 21.010174 0.227352 -1.438786 17.958410 -0.000000 -0.000001 0.000002 -8.076693 -0.486720 -3.806301 0.776415 -4.956967 26.686055 0.214660 -1.399066 17.446178 0.193230 -1.328934 16.545269 -0.000000 0.000002 -0.000003 4.570402 11.014650 -2.160814 1.212941 -17.493496 -11.641816 6.257656 -19.002208 -67.891350 0.000005 -2.747472 0.000008 -34.435338 -0.512720 -5.282533 2.466091 -1.576211 2.681694 -0.662910 2.160404 4.832492 11.930371 25.535622 16.961593 2.647891 -1.528756 1.528749 -13.815363 3.533720 9.041247 1.998929 -1.154088 1.154078 -0.000000 0.000004 0.000001 9.109280 -0.518008 2.259900 -0.016742 -0.968097 -7.814965 0.265310 1.744805 -17.292635 0.056494 0.812547 -7.954978 -0.000000 -0.000000 0.000000 9.533391 0.000004 -0.000000 -0.063719 2.730999 -15.939539 0.269582 1.758436 -17.432142 0.301356 1.856569 -18.439691 0.000000 0.000000 0.000007 9.104492 -0.042997 -1.865101 0.111565 3.588344 -21.393858 0.387055 2.096007 -20.924199 0.283402 1.801875 -17.877385 0.000000 -0.000001 0.000003 8.077790 -0.486894 -3.806301 0.753897 5.331988 -27.413094 0.267435 1.751582 -17.362030 0.240426 1.662791 -16.455597 -0.000000 0.000001 0.000002 -8.207800 -6.751708 -1.599542 -9.552212 -0.376249 -1.793797 24.153695 -9.972838 2.113344 -5.657474 -11.654079 3.976182 -7.078333 -0.000006 -0.000002 -0.000000 0.000001 0.000000 8.207799 -6.751702 -1.599545 -15.167898 11.350849 8.431904 21.259440 8.100946 4.389363 -3.336025 4.522113 -6.134516 -4.928521 0.000002 0.000001 0.000000 0.000000 0.000000 
